<svg width="64" height="64" viewBox="0 0 64 64" fill="none" xmlns="http://www.w3.org/2000/svg">
<path d="M49.842 9.86472H49.004H42.9974H41.7598V8.58933C41.7598 7.99053 41.2743 7.5051 40.6755 7.5051H38.6356C38.6484 7.40467 38.6572 7.30306 38.6572 7.19925C38.6572 5.87189 37.5813 4.7959 36.254 4.7959H31.479H28.5634C27.236 4.7959 26.16 5.87189 26.16 7.19925C26.16 7.30306 26.1688 7.40467 26.1816 7.5051H24.1418C23.5429 7.5051 23.0576 7.99053 23.0576 8.58933V9.86472H22.0661H14.9752H14.1372C14.0778 9.86472 14.0191 9.86773 13.9611 9.87361C13.0927 9.9618 12.415 10.6952 12.415 11.5868V57.4612C12.415 58.3529 13.0927 59.0863 13.9611 59.1745C14.0191 59.1803 14.0778 59.1833 14.1372 59.1833H14.9752H34.6996H49.004H49.842C50.7931 59.1833 51.5642 58.4123 51.5642 57.4613V11.5868C51.5642 10.6357 50.7932 9.86472 49.842 9.86472ZM29.6121 6.10678H31.3027H35.2053C36.0508 6.10678 36.7561 6.70727 36.918 7.5051H31.2079H27.8994C28.0613 6.70727 28.7665 6.10678 29.6121 6.10678Z" fill="#B99015"/>
<path d="M40.6756 7.5051H38.6357C38.6485 7.40467 38.6573 7.30306 38.6573 7.19925C38.6573 5.87189 37.5814 4.7959 36.254 4.7959H31.4791H28.5635C27.2361 4.7959 26.16 5.87189 26.16 7.19925C26.16 7.30306 26.1689 7.40467 26.1816 7.5051H24.1419C23.543 7.5051 23.0576 7.99053 23.0576 8.5893V9.86472V11.9621V13.4123C23.0576 14.0111 23.543 14.4965 24.1419 14.4965H25.1388V14.7641C25.1388 15.292 25.5667 15.7201 26.0948 15.7201H26.688H38.7227C39.2506 15.7201 39.6787 15.292 39.6787 14.7641V14.4965H40.6756C41.2744 14.4965 41.7599 14.0111 41.7599 13.4123V11.9621V9.86472V8.5893C41.7599 7.99053 41.2744 7.5051 40.6756 7.5051ZM29.6122 6.10678H31.3028H35.2053C36.0508 6.10678 36.7562 6.70727 36.9181 7.5051H31.208H27.8994C28.0613 6.70724 28.7665 6.10678 29.6122 6.10678Z" fill="#CCCCCC"/>
<path d="M32.1737 13.1945C32.0597 12.933 31.9584 12.6674 31.8665 12.3991H29.2351V11.9621H31.7268H31.7269C31.6838 11.8172 31.6431 11.6716 31.6058 11.5252H29.2351V11.0883H31.5031C31.4719 10.9432 31.444 10.7974 31.4179 10.6512H31.4178H29.2351V10.2143H31.3479C31.327 10.069 31.3082 9.92335 31.292 9.77728H31.2919H29.2351V9.34032H31.2494H31.2495C31.2005 8.73087 31.1889 8.1172 31.208 7.50507H27.8994C28.0613 6.70724 28.7665 6.10675 29.6122 6.10675H31.3028C31.3269 5.87048 31.3536 5.63477 31.3851 5.4007C31.4124 5.1983 31.447 4.99734 31.4791 4.7959H28.5635C27.2361 4.7959 26.16 5.87189 26.16 7.19925C26.16 7.30306 26.1689 7.40467 26.1816 7.5051H24.1419C23.543 7.5051 23.0576 7.99053 23.0576 8.5893V9.86472V11.9621V13.4123C23.0576 14.0111 23.543 14.4965 24.1419 14.4965H25.1388H32.8761C32.6023 14.084 32.3693 13.6432 32.1737 13.1945Z" fill="#BABABA"/>
<path d="M41.7598 11.9619V13.4121C41.7598 14.0109 41.2742 14.4963 40.6754 14.4963H39.6786V14.7639C39.6786 15.2918 39.2505 15.7199 38.7226 15.7199H26.6879H26.0947C25.5666 15.7199 25.1386 15.2918 25.1386 14.7639V14.4963H24.1418C23.5428 14.4963 23.0575 14.0109 23.0575 13.4121V11.9619H21.666H14.7715V56.9695H32.6613H45.3408H48.6801V11.9619H41.7598Z" fill="white"/>
<path d="M39.593 52.5432H17.8303V52.0687H39.1013C38.7822 51.756 38.4702 51.4373 38.1638 51.1142H17.8303V50.6398H37.7214C37.4339 50.3258 37.151 50.0082 36.8751 49.6853H17.8303V49.2109H36.4781C36.2184 48.8967 35.9641 48.5784 35.715 48.2564H17.8303V47.782H35.3522C33.6886 45.5606 32.2707 43.1638 31.0893 40.6401H19.7201V40.1657H30.8703C30.7269 39.8495 30.5875 39.5312 30.4514 39.2112H19.7201V38.7368H30.2524C30.1222 38.4204 29.9959 38.1021 29.8726 37.7823H19.7201V37.3079H29.6921C29.5742 36.9913 29.4604 36.6729 29.3493 36.3534H19.7201V35.8789H29.1859C28.4461 33.6745 27.8668 31.4024 27.4432 29.0894H17.8303V28.615H27.3592C27.3041 28.2975 27.2518 27.9793 27.2025 27.6605H17.8302V27.186H27.131C27.0849 26.8685 27.0422 26.5503 27.0018 26.2316H17.8303V25.7572H26.9425C26.9051 25.4396 26.8715 25.1212 26.8398 24.8027H17.8303V24.3281H26.7949C26.5366 21.4759 26.5034 18.5908 26.6879 15.7199H26.0947C25.5666 15.7199 25.1386 15.2918 25.1386 14.7639V14.4963H24.1418C23.5428 14.4963 23.0575 14.0109 23.0575 13.4121V11.9619H21.666H14.7715V56.9695H32.6613H45.3408C43.2416 55.6656 41.3272 54.1804 39.593 52.5432Z" fill="#FEF9EE"/>
<path d="M49.8419 9.86475H49.0039C49.9549 9.86475 50.7259 10.6358 50.7259 11.5869V48.4228V57.4613C50.7259 58.4124 49.9549 59.1834 49.0039 59.1834H49.8419C50.7931 59.1834 51.5641 58.4124 51.5641 57.4613V11.5869C51.5641 10.6358 50.7931 9.86475 49.8419 9.86475Z" fill="#F1C536"/>
<path d="M14.7714 56.9697V11.9621H21.6659C21.7878 11.2601 21.9204 10.5605 22.066 9.86475H14.9751H14.1371C14.0776 9.86475 14.0189 9.86776 13.961 9.87364C13.0926 9.96183 12.415 10.6952 12.415 11.5869V57.4613C12.415 58.3529 13.0926 59.0863 13.961 59.1745C14.0189 59.1804 14.0776 59.1834 14.1371 59.1834H14.9751H34.6995C33.9913 58.466 33.3131 57.7269 32.6612 56.9697H14.7714Z" fill="#EECC21"/>
<path d="M50.0079 11.8638L50.7262 48.4228V11.5869C50.7262 10.6358 49.9552 9.86475 49.0042 9.86475H42.9976L48.6803 10.4328C49.4948 10.5544 50.0079 10.9127 50.0079 11.8638Z" fill="#F7D67A"/>
<path d="M26.1382 11.8638C26.6902 11.8638 27.1377 11.4163 27.1377 10.8643C27.1377 10.3122 26.6902 9.86475 26.1382 9.86475C25.5862 9.86475 25.1387 10.3122 25.1387 10.8643C25.1387 11.4163 25.5862 11.8638 26.1382 11.8638Z" fill="#7A7A7A"/>
<path d="M39.6034 11.2459C39.8147 10.7359 39.5725 10.1512 39.0625 9.93991C38.5525 9.72866 37.9678 9.97084 37.7565 10.4808C37.5453 10.9909 37.7875 11.5756 38.2975 11.7868C38.8075 11.9981 39.3922 11.7559 39.6034 11.2459Z" fill="#9E9E9E"/>
<path d="M39.9908 18.604H37.6958V30.5183H43.1961H45.8234V18.604H39.9908Z" fill="#FEF9EE"/>
<path d="M37.6958 33.4688V44.0705H43.1961H45.8234V33.4688H39.9908H37.6958Z" fill="#FEF9EE"/>
<path d="M25.139 20.8813H17.8306V22.7988H25.139V20.8813Z" fill="#B99015"/>
<path d="M17.8306 24.8025H26.8401H32.6655V24.3281H26.7952H17.8306V24.8025Z" fill="#B99015"/>
<path d="M17.8306 26.2317H27.0021H32.6655V25.7573H26.9428H17.8306V26.2317Z" fill="#B99015"/>
<path d="M17.8306 27.6604H27.2028H32.6655V27.186H27.1313H17.8306V27.6604Z" fill="#B99015"/>
<path d="M17.8306 29.0897H27.4434H32.6655V28.6152H27.3594H17.8306V29.0897Z" fill="#B99015"/>
<path d="M26.8651 30.0439H17.8306V30.5183H26.8651V30.0439Z" fill="#B99015"/>
<path d="M19.7202 36.3533H29.3494H34.5552V35.8789H29.186H19.7202V36.3533Z" fill="#B99015"/>
<path d="M19.7202 37.7825H29.8728H34.5552V37.3081H29.6922H19.7202V37.7825Z" fill="#B99015"/>
<path d="M19.7202 39.2112H30.4515H34.5552V38.7368H30.2525H19.7202V39.2112Z" fill="#B99015"/>
<path d="M19.7202 40.6404H31.0894H34.5552V40.166H30.8705H19.7202V40.6404Z" fill="#B99015"/>
<path d="M28.7547 41.5947H19.7202V42.0691H28.7547V41.5947Z" fill="#B99015"/>
<path d="M17.8306 48.2566H35.7152H45.3411V47.7822H35.3525H17.8306V48.2566Z" fill="#B99015"/>
<path d="M17.8306 49.6853H36.8754H45.3411V49.2109H36.4784H17.8306V49.6853Z" fill="#B99015"/>
<path d="M17.8306 51.1146H38.1641H45.3411V50.6401H37.7217H17.8306V51.1146Z" fill="#B99015"/>
<path d="M17.8306 52.5433H39.5933H45.3411V52.0688H39.1016H17.8306V52.5433Z" fill="#B99015"/>
<path d="M34.5844 53.498H17.8306V53.9724H34.5844V53.498Z" fill="#B99015"/>
<path d="M18.4856 35.4272C18.1719 35.4272 17.9175 35.6816 17.9175 35.9953C17.9175 36.3091 18.1718 36.5634 18.4856 36.5634C18.7993 36.5634 19.0537 36.3091 19.0537 35.9953C19.0537 35.6816 18.7993 35.4272 18.4856 35.4272Z" fill="#B99015"/>
<path d="M18.4856 36.9771C18.1719 36.9771 17.9175 37.2313 17.9175 37.5451C17.9175 37.8589 18.1718 38.1132 18.4856 38.1132C18.7993 38.1132 19.0537 37.8589 19.0537 37.5451C19.0537 37.2314 18.7993 36.9771 18.4856 36.9771Z" fill="#B99015"/>
<path d="M18.4856 38.5269C18.1719 38.5269 17.9175 38.7811 17.9175 39.0949C17.9175 39.4086 18.1718 39.663 18.4856 39.663C18.7993 39.663 19.0537 39.4086 19.0537 39.0949C19.0537 38.7811 18.7993 38.5269 18.4856 38.5269Z" fill="#B99015"/>
<path d="M18.4856 40.0767C18.1719 40.0767 17.9175 40.331 17.9175 40.6448C17.9175 40.9585 18.1718 41.2128 18.4856 41.2128C18.7993 41.2128 19.0537 40.9585 19.0537 40.6448C19.0537 40.331 18.7993 40.0767 18.4856 40.0767Z" fill="#B99015"/>
<path d="M18.4856 41.627C18.1719 41.627 17.9175 41.8812 17.9175 42.1951C17.9175 42.5088 18.1718 42.7631 18.4856 42.7631C18.7993 42.7631 19.0537 42.5088 19.0537 42.1951C19.0537 41.8812 18.7993 41.627 18.4856 41.627Z" fill="#B99015"/>
<path d="M31.2492 9.34033H31.2492H29.2349V9.77726H31.2916H31.2917H36.0954V9.34033H31.2492Z" fill="#9E9E9E"/>
<path d="M31.7266 11.9619H29.2349V12.3989H31.8662H36.0954V11.9619H31.7266H31.7266Z" fill="#9E9E9E"/>
<path d="M29.2349 10.2144V10.6513H31.4176H31.4177H36.0954V10.2144H31.3476H29.2349Z" fill="#9E9E9E"/>
<path d="M29.2349 11.0884V11.5253H31.6055H31.6055H36.0954V11.0884H31.5028H29.2349Z" fill="#9E9E9E"/>
<path d="M39.9908 18.604H37.6958V30.5183H43.1961C40.2399 27.7677 39.8139 22.7496 39.9908 18.604Z" fill="#FAE2AE"/>
<path d="M39.9908 33.4688H37.6958V44.0705H43.1961C40.2399 41.6229 39.8139 37.1576 39.9908 33.4688Z" fill="#FAE2AE"/>
<path d="M32.876 14.4966H25.1387V14.7641C25.1387 15.2921 25.5666 15.7201 26.0947 15.7201H26.6879H38.7226C39.2506 15.7201 39.6786 15.2921 39.6786 14.7641V14.4966H32.876Z" fill="#9E9E9E"/>
<path d="M39.6717 14.8751C39.6759 14.8386 39.6786 14.8017 39.6786 14.7641V14.4966H25.1387V14.7641C25.1387 14.8017 25.1414 14.8386 25.1456 14.8751H39.6717Z" fill="#7A7A7A"/>
<path d="M29.2349 9.34033V9.77726H31.2916C31.2755 9.63186 31.2609 9.48631 31.2492 9.34033H29.2349Z" fill="#7A7A7A"/>
<path d="M29.2349 10.2144V10.6513H31.4176C31.3918 10.5061 31.3686 10.3604 31.3476 10.2144H29.2349Z" fill="#7A7A7A"/>
<path d="M29.2349 11.0884V11.5253H31.6055C31.5686 11.3803 31.5342 11.2347 31.5028 11.0884H29.2349Z" fill="#7A7A7A"/>
<path d="M29.2349 11.9619V12.3989H31.8662C31.8165 12.2541 31.7701 12.1084 31.7266 11.9619H29.2349Z" fill="#7A7A7A"/>
</svg>
