<svg width="20" height="20" viewBox="0 0 20 20" fill="none" xmlns="http://www.w3.org/2000/svg">
  <path
    d="M4.1665 7.09537C4.1665 4.09709 6.77818 1.6665 9.99984 1.6665C13.2215 1.6665 15.8332 4.09709 15.8332 7.09537C15.8332 10.0701 13.9714 13.5414 11.0666 14.7828C10.3894 15.0722 9.61027 15.0722 8.93312 14.7828C6.0283 13.5414 4.1665 10.0701 4.1665 7.09537Z"
    stroke="currentColor" stroke-width="1.2" />
  <path
    d="M11.6668 7.50016C11.6668 8.42064 10.9206 9.16683 10.0002 9.16683C9.07969 9.16683 8.3335 8.42064 8.3335 7.50016C8.3335 6.57969 9.07969 5.8335 10.0002 5.8335C10.9206 5.8335 11.6668 6.57969 11.6668 7.50016Z"
    stroke="currentColor" stroke-width="1.2" />
  <path
    d="M17.4669 12.9165C18.0214 13.4186 18.3332 13.9845 18.3332 14.5832C18.3332 16.6542 14.6022 18.3332 9.99984 18.3332C5.39746 18.3332 1.6665 16.6542 1.6665 14.5832C1.6665 13.9845 1.97827 13.4186 2.53273 12.9165"
    stroke="currentColor" stroke-width="1.2" stroke-linecap="round" />
</svg>
